# xmcd CD database file
#
# Track frame offsets:
#	150
#	14582
#	29247
#	47207
#	63882
#	76030
#	98752
#	112820
#	128985
#	144242
#	164420
#	180862
#
# Disc length: 2613 seconds
#
# Revision: 0
# Processed by: cddbd v1.5PL3 Copyright (c) Steve Scherf et al.
# Submitted via: CDex 1.50
#
DISCID=940a330c
DTITLE=Network Music - Reflections
DYEAR=1997
DGENRE=New Age
TTITLE0=Chianti
TTITLE1=ShadowSax
TTITLE2=Top Of The Cove
TTITLE3=Reminiscence
TTITLE4=Secret Wish
TTITLE5=Cashmere
TTITLE6=Sojourn
TTITLE7=Reflections
TTITLE8=Bittersweet
TTITLE9=Summer Waltz
TTITLE10=Nightcap
TTITLE11=Candelabra
EXTD=YEAR: 1997
EXTT0=
EXTT1=
EXTT2=
EXTT3=
EXTT4=
EXTT5=
EXTT6=
EXTT7=
EXTT8=
EXTT9=
EXTT10=
EXTT11=
PLAYORDER=
